HIERARCHY
ROOT hip
{
  OFFSET 0 0 0
  CHANNELS 6 Xposition Yposition Zposition Zrotation Yrotation Xrotation
  JOINT abdomen
  {
    OFFSET 0 20.6881 -0.73152
    CHANNELS 3 Zrotation Xrotation Yrotation
    JOINT chest
    {
      OFFSET 0 11.7043 -0.48768
      CHANNELS 3 Zrotation Xrotation Yrotation
      JOINT neck
      {
        OFFSET 0 22.1894 -2.19456
        CHANNELS 3 Zrotation Xrotation Yrotation
        JOINT head
        {
          OFFSET -0.24384 7.07133 1.2192
          CHANNELS 3 Zrotation Xrotation Yrotation
          JOINT leftEye
          {
            OFFSET 4.14528 8.04674 8.04672
            CHANNELS 3 Zrotation Xrotation Yrotation
            End Site
            {
              OFFSET 1 0 0
            }
          }
          JOINT rightEye
          {
            OFFSET -3.6576 8.04674 8.04672
            CHANNELS 3 Zrotation Xrotation Yrotation
            End Site
            {
              OFFSET 1 0 0
            }
          }
        }
      }
      JOINT rCollar
      {
        OFFSET -2.68224 19.2634 -4.8768
        CHANNELS 3 Zrotation Xrotation Yrotation
        JOINT rShldr
        {
          OFFSET -8.77824 -1.95073 1.46304
          CHANNELS 3 Zrotation Xrotation Yrotation
          JOINT rForeArm
          {
            OFFSET -28.1742 -1.7115 0.48768
            CHANNELS 3 Zrotation Xrotation Yrotation
            JOINT rHand
            {
              OFFSET -22.5879 0.773209 7.07136
              CHANNELS 3 Zrotation Xrotation Yrotation
              JOINT rThumb1
              {
                OFFSET -1.2192 -0.487915 3.41376
                CHANNELS 3 Zrotation Xrotation Yrotation
                JOINT rThumb2
                {
                  OFFSET -3.37035 -0.52449 3.41376
                  CHANNELS 3 Zrotation Xrotation Yrotation
                  End Site
                  {
                    OFFSET -1.78271 -1.18214 1.43049
                  }
                }
              }
              JOINT rIndex1
              {
                OFFSET -7.75947 0.938293 5.60832
                CHANNELS 3 Zrotation Xrotation Yrotation
                JOINT rIndex2
                {
                  OFFSET -2.54057 -0.884171 1.56538
                  CHANNELS 3 Zrotation Xrotation Yrotation
                  End Site
                  {
                    OFFSET -1.62519 -0.234802 1.16502
                  }
                }
              }
              JOINT rMid1
              {
                OFFSET -8.24714 1.18213 3.41376
                CHANNELS 3 Zrotation Xrotation Yrotation
                JOINT rMid2
                {
                  OFFSET -3.10165 -0.590103 1.0647
                  CHANNELS 3 Zrotation Xrotation Yrotation
                  End Site
                  {
                    OFFSET -2.48547 -0.328903 0.83742
                  }
                }
              }
              JOINT rRing1
              {
                OFFSET -8.82822 0.546677 1.51678
                CHANNELS 3 Zrotation Xrotation Yrotation
                JOINT rRing2
                {
                  OFFSET -2.60934 -0.819778 -0.0198488
                  CHANNELS 3 Zrotation Xrotation Yrotation
                  End Site
                  {
                    OFFSET -2.33842 -0.294052 0.168128
                  }
                }
              }
              JOINT rPinky1
              {
                OFFSET -8.27202 -0.0477905 -0.4584
                CHANNELS 3 Zrotation Xrotation Yrotation
                JOINT rPinky2
                {
                  OFFSET -1.82734 -0.647385 -0.700984
                  CHANNELS 3 Zrotation Xrotation Yrotation
                  End Site
                  {
                    OFFSET -1.69225 -0.51767 -0.607171
                  }
                }
              }
            }
          }
        }
      }
      JOINT lCollar
      {
        OFFSET 2.68224 19.2634 -4.8768
        CHANNELS 3 Zrotation Xrotation Yrotation
        JOINT lShldr
        {
          OFFSET 8.77824 -1.95073 1.46304
          CHANNELS 3 Zrotation Xrotation Yrotation
          JOINT lForeArm
          {
            OFFSET 28.1742 -1.7115 0.48768
            CHANNELS 3 Zrotation Xrotation Yrotation
            JOINT lHand
            {
              OFFSET 22.5879 0.773209 7.07136
              CHANNELS 3 Zrotation Xrotation Yrotation
              JOINT lThumb1
              {
                OFFSET 1.2192 -0.487915 3.41376
                CHANNELS 3 Zrotation Xrotation Yrotation
                JOINT lThumb2
                {
                  OFFSET 3.37035 -0.52449 3.41376
                  CHANNELS 3 Zrotation Xrotation Yrotation
                  End Site
                  {
                    OFFSET 1.78271 -1.18214 1.43049
                  }
                }
              }
              JOINT lIndex1
              {
                OFFSET 7.75947 0.938293 5.60832
                CHANNELS 3 Zrotation Xrotation Yrotation
                JOINT lIndex2
                {
                  OFFSET 2.54057 -0.884171 1.56538
                  CHANNELS 3 Zrotation Xrotation Yrotation
                  End Site
                  {
                    OFFSET 1.62519 -0.234802 1.16502
                  }
                }
              }
              JOINT lMid1
              {
                OFFSET 8.24714 1.18213 3.41376
                CHANNELS 3 Zrotation Xrotation Yrotation
                JOINT lMid2
                {
                  OFFSET 3.10165 -0.590103 1.0647
                  CHANNELS 3 Zrotation Xrotation Yrotation
                  End Site
                  {
                    OFFSET 2.48547 -0.328903 0.83742
                  }
                }
              }
              JOINT lRing1
              {
                OFFSET 8.82822 0.546677 1.51678
                CHANNELS 3 Zrotation Xrotation Yrotation
                JOINT lRing2
                {
                  OFFSET 2.60934 -0.819778 -0.0198488
                  CHANNELS 3 Zrotation Xrotation Yrotation
                  End Site
                  {
                    OFFSET 2.33842 -0.294052 0.168128
                  }
                }
              }
              JOINT lPinky1
              {
                OFFSET 8.27202 -0.0477905 -0.4584
                CHANNELS 3 Zrotation Xrotation Yrotation
                JOINT lPinky2
                {
                  OFFSET 1.82734 -0.647385 -0.700984
                  CHANNELS 3 Zrotation Xrotation Yrotation
                  End Site
                  {
                    OFFSET 1.69225 -0.51767 -0.607171
                  }
                }
              }
            }
          }
        }
      }
    }
  }
  JOINT rButtock
  {
    OFFSET -8.77824 4.35084 1.2192
    CHANNELS 3 Zrotation Xrotation Yrotation
    JOINT rThigh
    {
      OFFSET 0 -1.70687 -2.19456
      CHANNELS 3 Zrotation Xrotation Yrotation
      JOINT rShin
      {
        OFFSET 0 -36.8199 0.73152
        CHANNELS 3 Zrotation Xrotation Yrotation
        JOINT rFoot
        {
          OFFSET 0.73152 -45.1104 -5.12064
          CHANNELS 3 Zrotation Xrotation Yrotation
          End Site
          {
            OFFSET -1.1221 -3.69964 12.103
          }
        }
      }
    }
  }
  JOINT lButtock
  {
    OFFSET 8.77824 4.35084 1.2192
    CHANNELS 3 Zrotation Xrotation Yrotation
    JOINT lThigh
    {
      OFFSET 0 -1.70687 -2.19456
      CHANNELS 3 Zrotation Xrotation Yrotation
      JOINT lShin
      {
        OFFSET 0 -36.8199 0.73152
        CHANNELS 3 Zrotation Xrotation Yrotation
        JOINT lFoot
        {
          OFFSET -0.73152 -45.1104 -5.12064
          CHANNELS 3 Zrotation Xrotation Yrotation
          End Site
          {
            OFFSET 1.1221 -3.69964 12.103
          }
        }
      }
    }
  }
}
MOTION
Frames:	6
Frame Time:	0.00833333
22.6732 81.3789 -153.5 0.0 0.0 0.0 -1.20514 -0.00379106 -0.0330417 -0.332191 -0.00228088 -0.0575421 -9.94335e-15 7.95139e-16 2.45553e-23 -2.99171e-14 9.54166e-15 -2.95071e-17 -0.0 0.0 0.0 -0.0 0.0 0.0 -4.82238e-15 -6.44497e-17 4.96962e-17 -1.01812e-13 -1.4474e-15 1.98785e-16 -1.79244e-12 4.86426e-13 -3.18055e-15 -2.0481e-11 -7.89672e-13 -5.40694e-14 -4.83178e-11 -6.57773e-13 -1.11319e-13 -8.34478e-11 -1.13228e-12 -2.15483e-13 -4.8313e-11 -6.60363e-13 -1.145e-13 7.73091 5.47488 0.417314 -4.83182e-11 -6.58077e-13 -1.20861e-13 2.90554 0.965183 0.102902 -4.83094e-11 -6.57778e-13 -1.26427e-13 10.2786 0.731801 0.0259123 -4.83212e-11 -6.55592e-13 -1.30403e-13 2.22167 -0.733487 -0.20892 -4.91839e-15 -6.46438e-17 -1.49089e-16 -1.05382e-13 -1.35422e-15 -1.59028e-15 -1.78588e-12 -5.8065e-13 3.18055e-14 -2.04632e-11 2.96015e-13 -9.22361e-14 -4.82656e-11 -6.18961e-13 -1.33583e-13 -8.33528e-11 -1.07503e-12 -2.13097e-13 -4.82725e-11 -6.1822e-13 -1.20861e-13 -7.73091 5.47488 -0.417314 -4.82656e-11 -6.19015e-13 -1.30403e-13 -2.90554 0.965183 -0.102902 -4.82744e-11 -6.18618e-13 -1.25632e-13 -10.2786 0.731801 -0.0259123 -4.82631e-11 -6.17028e-13 -1.24042e-13 -2.22167 -0.733487 0.20892 -2.03217e-16 0.0 -3.88251e-19 -0.39843 -1.9209 -0.0104531 -0.00935589 -2.07854 -0.077323 -0.515479 3.9968 0.140793 2.03217e-16 0.0 3.88251e-19 -1.43376 -5.89301 0.127746 -0.000949092 5.11651 -0.0408552 0.531048 0.773986 -0.076367
20.3068 78.8592 -155.841 -10.6933 2.66 9.4 3.63356 5.03429 1.46068 -0.77637 -2.27811 0.498579 -0.848249 -1.8143 -0.92307 -0.920459 -3.52914 -1.59513 -0.0 0.0 0.0 -0.0 0.0 0.0 -3.30795e-14 1.4888e-14 -6.26443e-15 20.379 10.9096 -3.32255 -18.5829 -16.2054 15.1297 -3.68612e-05 0.00999946 0.00140507 2.47597e-10 9.22783e-11 -2.82687e-10 4.28468e-10 1.60205e-10 -4.89288e-10 2.47601e-10 9.22775e-11 -2.82691e-10 7.73091 5.47488 0.417314 2.47596e-10 9.22791e-11 -2.82695e-10 2.90554 0.965183 0.102902 2.47604e-10 9.22797e-11 -2.82697e-10 10.2786 0.731801 0.0259123 2.47595e-10 9.22812e-11 -2.82696e-10 2.22167 -0.733487 -0.20892 -3.32127e-14 1.48852e-14 -6.49156e-15 -22.2835 12.7208 8.09681 21.3243 -19.1545 -15.1006 -0.0167857 -2.8772 0.40253 3.22638e-11 1.06431e-10 3.56766e-10 5.20222e-11 1.78586e-10 6.18779e-10 3.22573e-11 1.06431e-10 3.5678e-10 -7.73091 5.47488 -0.417314 3.22641e-11 1.0643e-10 3.56768e-10 -2.90554 0.965183 -0.102902 3.22546e-11 1.0643e-10 3.56772e-10 -10.2786 0.731801 -0.0259123 3.22658e-11 1.06432e-10 3.56771e-10 -2.22167 -0.733487 0.20892 -2.03217e-16 0.0 -3.88251e-19 2.99753 -1.99099 -0.275559 -0.00475979 9.79928 0.0803065 -0.544648 5.79389 -0.386306 2.03217e-16 0.0 3.88251e-19 1.80084 -22.5933 0.629195 0.175393 18.463 -0.110342 0.145206 1.60903 -2.86045
20.445 79.4289 -152.475 -10.8172 2.6725 9.3277 8.4665 10.3415 3.09007 -1.20329 -4.69006 1.09298 -1.81635 -3.72517 -1.90981 -2.10206 -7.26555 -3.31419 -0.0 0.0 0.0 -0.0 0.0 0.0 -6.71468e-14 3.23761e-14 -1.45517e-14 43.3842 22.3451 -7.22469 -28.2769 -29.4639 34.8808 -0.000101506 0.0361388 0.00507828 5.87086e-10 1.76048e-10 -5.96954e-10 1.01575e-09 3.05771e-10 -1.03321e-09 5.87088e-10 1.76049e-10 -5.96959e-10 7.73091 5.47488 0.417314 5.87085e-10 1.7605e-10 -5.9696e-10 2.90554 0.965183 0.102902 5.87091e-10 1.76051e-10 -5.96959e-10 10.2786 0.731801 0.0259123 5.87085e-10 1.76052e-10 -5.96952e-10 2.22167 -0.733487 -0.20892 -6.7323e-14 3.23705e-14 -1.48095e-14 -50.04 25.3287 18.0555 31.4289 -34.6424 -36.5144 0.00961594 -5.90401 0.829443 1.25098e-10 2.30831e-10 7.65279e-10 2.08114e-10 3.87439e-10 1.32731e-09 1.25092e-10 2.3083e-10 7.65294e-10 -7.73091 5.47488 -0.417314 1.25099e-10 2.3083e-10 7.65281e-10 -2.90554 0.965183 -0.102902 1.25089e-10 2.30829e-10 7.65284e-10 -10.2786 0.731801 -0.0259123 1.251e-10 2.3083e-10 7.65281e-10 -2.22167 -0.733487 0.20892 -2.03217e-16 0.0 -3.88251e-19 6.61435 -1.97045 -0.554938 -0.0732109 22.1255 0.261557 -0.539217 7.6606 -0.946916 2.03217e-16 0.0 3.88251e-19 5.66862 -40.3122 1.3938 0.402973 32.5897 -0.206462 -0.187051 2.3591 -5.81442
20.5794 79.885 -149.148 -11.0303 2.6913 9.2448 12.5 15.0691 4.58935 -1.53142 -6.82733 1.62114 -2.72072 -5.43723 -2.78034 -3.35876 -10.5543 -4.85871 -0.0 0.0 0.0 -0.0 0.0 0.0 -8.95938e-14 4.4793e-14 -1.88927e-14 65.4964 32.2471 -11.5951 -29.0424 -33.8766 56.0775 -0.000112055 0.0299984 0.00421521 8.39427e-10 2.7815e-10 -8.47839e-10 1.4523e-09 4.82881e-10 -1.46743e-09 8.39428e-10 2.78153e-10 -8.47844e-10 7.73091 5.47488 0.417314 8.39426e-10 2.78154e-10 -8.47843e-10 2.90554 0.965183 0.102902 8.39431e-10 2.78155e-10 -8.47839e-10 10.2786 0.731801 0.0259123 8.39428e-10 2.78155e-10 -8.47828e-10 2.22167 -0.733487 -0.20892 -8.98013e-14 4.4785e-14 -1.91765e-14 -79.2118 34.7838 29.2887 30.2646 -39.1921 -61.1226 0.0720977 -8.62988 1.21988 1.93323e-10 3.20531e-10 1.07056e-09 3.22772e-10 5.37908e-10 1.85676e-09 1.93317e-10 3.20528e-10 1.07058e-09 -7.73091 5.47488 -0.417314 1.93324e-10 3.20529e-10 1.07057e-09 -2.90554 0.965183 -0.102902 1.93313e-10 3.20528e-10 1.07057e-09 -10.2786 0.731801 -0.0259123 1.93324e-10 3.20529e-10 1.07056e-09 -2.22167 -0.733487 0.20892 -2.03217e-16 0.0 -3.88251e-19 9.78751 -2.13102 -0.805841 -0.220135 33.5541 0.470322 -0.50255 9.38548 -1.45336 2.03217e-16 0.0 3.88251e-19 9.77641 -55.9689 2.66052 0.664404 45.1557 -0.32985 -0.383721 3.24965 -8.43892
20.7244 80.2081 -145.85 -11.2484 2.6665 9.0826 15.1238 18.3886 5.6273 -1.70896 -8.28035 1.9735 -3.3398 -6.65781 -3.34972 -4.36709 -12.757 -5.8944 -0.0 0.0 0.0 -0.0 0.0 0.0 -8.29897e-14 4.45318e-14 -1.33683e-14 82.1671 38.7471 -15.6188 -28.153 -31.6189 69.8404 -3.963e-06 -0.0568414 -0.00798854 8.73899e-10 4.26086e-10 -9.40267e-10 1.51201e-09 7.38852e-10 -1.62739e-09 8.739e-10 4.2609e-10 -9.40274e-10 7.73091 5.47488 0.417314 8.73897e-10 4.26089e-10 -9.40271e-10 2.90554 0.965183 0.102902 8.73902e-10 4.2609e-10 -9.40266e-10 10.2786 0.731801 0.0259123 8.73899e-10 4.2609e-10 -9.40251e-10 2.22167 -0.733487 -0.20892 -8.31996e-14 4.45225e-14 -1.36664e-14 -102.273 39.6719 38.6539 28.4326 -35.8764 -76.8025 0.139954 -10.605 1.50786 2.00022e-10 3.2348e-10 1.11778e-09 3.33843e-10 5.42418e-10 1.93855e-09 2.00015e-10 3.23475e-10 1.1178e-09 -7.73091 5.47488 -0.417314 2.00021e-10 3.23476e-10 1.11778e-09 -2.90554 0.965183 -0.102902 2.00012e-10 3.23477e-10 1.11778e-09 -10.2786 0.731801 -0.0259123 2.00022e-10 3.23476e-10 1.11777e-09 -2.22167 -0.733487 0.20892 -2.03217e-16 0.0 -3.88251e-19 11.8486 -2.74439 -0.985725 -0.419586 42.7389 0.691446 -0.455803 10.758 -1.81449 2.03217e-16 0.0 3.88251e-19 13.4498 -66.489 4.45128 0.899776 53.8206 -0.448317 -0.356104 4.51033 -10.2372
20.8599 80.4996 -142.55 -11.4453 2.6389 8.8574 16.1434 19.7356 5.93723 -1.73814 -8.75085 2.07867 -3.51859 -7.23062 -3.49881 -4.81195 -13.4238 -6.17372 -0.0 0.0 0.0 -0.0 0.0 0.0 -1.50147e-14 1.77999e-14 1.36994e-14 89.2138 40.9206 -17.7946 -28.0524 -29.4879 73.998 9.47289e-05 -0.325513 -0.0457461 4.95475e-10 8.30496e-10 -8.71681e-10 8.57689e-10 1.43763e-09 -1.50842e-09 4.95477e-10 8.30499e-10 -8.71688e-10 7.73091 5.47488 0.417314 4.95474e-10 8.30498e-10 -8.71684e-10 2.90554 0.965183 0.102902 4.95479e-10 8.30496e-10 -8.7168e-10 10.2786 0.731801 0.0259123 4.95475e-10 8.30497e-10 -8.71666e-10 2.22167 -0.733487 -0.20892 -1.51762e-14 1.77905e-14 1.34044e-14 -111.817 40.8576 42.185 28.3412 -33.4221 -81.8106 0.177629 -11.5642 1.64934 9.24615e-11 2.71874e-10 7.73171e-10 1.5187e-10 4.58651e-10 1.34003e-09 9.245e-11 2.71866e-10 7.73186e-10 -7.73091 5.47488 -0.417314 9.24567e-11 2.71866e-10 7.73169e-10 -2.90554 0.965183 -0.102902 9.24506e-11 2.71871e-10 7.73169e-10 -10.2786 0.731801 -0.0259123 9.24613e-11 2.7187e-10 7.73161e-10 -2.22167 -0.733487 0.20892 -2.03217e-16 0.0 -3.88251e-19 12.454 -3.89429 -0.993898 -0.599561 48.7495 0.872386 -0.423367 11.7937 -1.80073 2.03217e-16 0.0 3.88251e-19 14.9149 -69.9874 5.39679 0.993299 56.8759 -0.463746 0.0313276 6.88233 -10.9173
